<svg id="Layer_3" height="512" viewBox="0 0 64 64" width="512" xmlns="http://www.w3.org/2000/svg" data-name="Layer 3"><path d="m61.465 54.051-5.758-5.758a1 1 0 0 0 -1.414 0l-.293.293-4.324-4.324a15.928 15.928 0 0 0 -6.676-22.627v-19.635a1 1 0 0 0 -1-1h-40a1 1 0 0 0 -1 1v60a1 1 0 0 0 1 1h40a1 1 0 0 0 1-1v-11.635q.648-.316 1.262-.689l4.324 4.324-.293.293a1 1 0 0 0 0 1.414l5.758 5.758a5.242 5.242 0 0 0 7.414-7.414zm-11.465-18.051a13.975 13.975 0 0 1 -21 12.106v-.106h-.174a13.992 13.992 0 1 1 21.174-12zm-37 8h-4v-16h4zm10.53 2a16.084 16.084 0 0 0 1.923 2h-18.453v-2zm-.53-19.292a15.878 15.878 0 0 0 -.835 17.292h-3.165v-24h4zm11-6.569a15.834 15.834 0 0 0 -4 1.039v-7.178h4zm7 40.861h-38v-58h38v17.811a15.913 15.913 0 0 0 -5-.811v-7a1 1 0 0 0 -1-1h-6a1 1 0 0 0 -1 1v9.165a16.066 16.066 0 0 0 -3 2.246v-5.411a1 1 0 0 0 -1-1h-6a1 1 0 0 0 -1 1v25h-2v-17a1 1 0 0 0 -1-1h-6a1 1 0 0 0 -1 1v17h-1a1 1 0 0 0 -1 1v4a1 1 0 0 0 1 1h22.271a15.89 15.89 0 0 0 12.729 1.189zm4.934-12.48a16.218 16.218 0 0 0 2.586-2.586l4.066 4.066-2.586 2.586zm11.824 12.48a3.222 3.222 0 0 1 -2.293-.949l-5.051-5.051 4.586-4.586 5.051 5.051a3.243 3.243 0 0 1 -2.293 5.535z"/><path d="m24 36a12 12 0 1 0 12-12 12.013 12.013 0 0 0 -12 12zm6-7.981a9.936 9.936 0 0 1 4-1.819v19.6a9.936 9.936 0 0 1 -4-1.817zm-4 7.981a9.932 9.932 0 0 1 2-5.974v11.948a9.932 9.932 0 0 1 -2-5.974zm10-10a9.928 9.928 0 0 1 5 1.353v17.294a9.928 9.928 0 0 1 -5 1.353zm10 10a9.965 9.965 0 0 1 -3 7.129v-14.258a9.965 9.965 0 0 1 3 7.129z"/><path d="m7 7h8v2h-8z"/><path d="m5 11h10v2h-10z"/><path d="m5 15h10v2h-10z"/><path d="m21 57h14v2h-14z"/><path d="m37 57h2v2h-2z"/><path d="m21 53h14v2h-14z"/><path d="m37 53h2v2h-2z"/></svg>